# xmcd
#
# Track frame offsets: 
#        150
#        55744
#        209373
#        256057
#
# Disc length: 3831 seconds
#
# Revision: 1
# Processed by: cddbd v1.5.2PL0 Copyright (c) Steve Scherf et al.
# Submitted via: ExactAudioCopy v1.0b2
#
DISCID=2f0ef504
DTITLE=Peter Broetzmann - Paal Nilssen-Love - Sweet Sweat
DYEAR=2007
DGENRE=Free Jazz
TTITLE0=Sweet Sweat
TTITLE1=Burnt Sugar
TTITLE2=Never Enough
TTITLE3=Weird Blue
EXTD=YEAR: 2007
EXTT0=
EXTT1=
EXTT2=
EXTT3=
PLAYORDER=
